<svg width="37" height="37" viewBox="0 0 37 37" fill="none" xmlns="http://www.w3.org/2000/svg">
<path d="M23.189 21.9436C24.5811 20.2584 25.4603 18.097 25.4603 15.7159C25.4603 10.3673 21.1009 6.00793 15.7524 6.00793C10.4038 6.00793 6.04443 10.3673 6.04443 15.7159C6.04443 21.0644 10.4038 25.4238 15.7524 25.4238C18.0969 25.4238 20.2949 24.5812 21.9801 23.1525L29.5266 30.699C29.7098 30.8822 29.9296 30.9555 30.1494 30.9555C30.3692 30.9555 30.589 30.8822 30.7722 30.699C31.1019 30.3693 31.1019 29.7832 30.7722 29.4535L23.189 21.9436ZM15.7157 23.6654C11.3197 23.6654 7.76622 20.1119 7.76622 15.7159C7.76622 11.3198 11.3197 7.76635 15.7157 7.76635C20.1118 7.76635 23.6652 11.3198 23.6652 15.7159C23.6652 20.1119 20.1118 23.6654 15.7157 23.6654Z" fill="#918D8E"/>
</svg>
